<svg xmlns="http://www.w3.org/2000/svg" width="128" height="128" xml:space="preserve"><path fill="#282D33" d="M36.412 68.82H91.59v4H36.412zM36.412 55.179H91.59v4H36.412z"/><path fill="#282D33" d="M38.311 92.083H21.269V35.917h17.042v56.166zm-13.042-4h9.042V39.917h-9.042v48.166zM0 51.961h4v24.078H0z"/><path fill="#282D33" d="M25.469 92.083H8.427V35.917h17.042v56.166zm-13.042-4h9.042V39.917h-9.042v48.166zM106.73 92.083H89.689V35.917h17.041v56.166zm-13.041-4h9.041V39.917h-9.041v48.166zM124 51.961h4v24.078h-4z"/><path fill="#282D33" d="M119.573 92.083h-17.041V35.917h17.041v56.166zm-13.041-4h9.041V39.917h-9.041v48.166z"/><g><path fill="#282D33" d="M59.693 12.835h4v13.844h-4zM46.111 15.442l4.736 13.011-3.759 1.368-4.735-13.011zM48.213 98.591l3.759 1.37-4.74 13.01-3.759-1.37zM60.896 101.32h4v13.845h-4zM77.506 98.178l4.73 13.01-3.76 1.367-4.73-13.01zM77.353 15.03l3.758 1.37-4.74 13.008-3.757-1.369z"/></g></svg>