<svg xmlns="http://www.w3.org/2000/svg" width="64" height="64" xml:space="preserve"><path d="M55.5 64a1 1 0 0 0 1-1V1a1 1 0 0 0-1-1h-42c-3.309 0-6 2.691-6 6v52c0 3.309 2.691 6 6 6h42zm-1-12h-38V2h38v50zm-2 2h2v8h-2v-8zm-39-52h1v50h-1a5.97 5.97 0 0 0-4 1.54V6c0-2.206 1.794-4 4-4zm-4 56c0-2.206 1.794-4 4-4h37v3.002h-37a1 1 0 1 0 0 2h37V62h-37c-2.206 0-4-1.794-4-4z"/><path d="M21.503 16.999c0 2.967 2.166 5.431 4.999 5.909v9.09a1 1 0 0 0 1 1h16.001a1 1 0 0 0 1-1v-9.09c2.832-.479 4.998-2.942 4.998-5.909 0-3.309-2.691-6-6-6h-2.263c-1.267-1.811-3.364-3-5.736-3s-4.47 1.189-5.736 3h-2.264a6.006 6.006 0 0 0-5.999 6zM28.502 30h14.001v.998H28.502V30zm-.999-17.001h1.294a6.996 6.996 0 0 0-.295 2 1 1 0 1 0 2 0c0-2.757 2.243-5 5-5s5 2.243 5 5a1 1 0 1 0 2 0c0-.695-.105-1.365-.295-2h1.294c2.206 0 4 1.794 4 4a4.003 4.003 0 0 1-3.992 3.999l-.006-.001a.996.996 0 0 0-.708.294.996.996 0 0 0-.294.708l.002.01V28H28.502v-5.996l.001-.005a1 1 0 0 0-1.001-1.002l-.006.001a4.003 4.003 0 0 1-3.993-3.999c0-2.206 1.794-4 4-4zM46.499 36.999H24.505a1 1 0 1 0 0 2h21.994a1 1 0 1 0 0-2zM46.499 39.999H24.505a1 1 0 1 0 0 2h21.994a1 1 0 1 0 0-2zM41.5 43.025H29.504a1 1 0 1 0 0 2H41.5a1 1 0 1 0 0-2z"/></svg>